<mxfile host="app.diagrams.net" modified="2024-03-06T11:36:26.826Z" agent="Mozilla/5.0 (Windows NT 10.0; Win64; x64) AppleWebKit/537.36 (KHTML, like Gecko) Chrome/122.0.0.0 Safari/537.36" etag="_Qc6vBpHzAi0L4ps2tXj" version="24.0.2" type="github">
  <diagram name="Strona-1" id="bv3qThM9OkOV8ynKCbBf">
    <mxGraphModel dx="677" dy="337" grid="1" gridSize="10" guides="1" tooltips="1" connect="1" arrows="1" fold="1" page="1" pageScale="1" pageWidth="827" pageHeight="1169" math="0" shadow="0">
      <root>
        <mxCell id="0" />
        <mxCell id="1" parent="0" />
        <mxCell id="9OET-AX3l3BfNzuc_vFU-1" value="" style="rounded=0;whiteSpace=wrap;html=1;" vertex="1" parent="1">
          <mxGeometry x="120" y="10" width="510" height="660" as="geometry" />
        </mxCell>
        <mxCell id="9OET-AX3l3BfNzuc_vFU-2" value="Uczeń" style="shape=umlActor;verticalLabelPosition=bottom;verticalAlign=top;html=1;outlineConnect=0;" vertex="1" parent="1">
          <mxGeometry x="50" y="390" width="60" height="100" as="geometry" />
        </mxCell>
        <mxCell id="9OET-AX3l3BfNzuc_vFU-3" value="" style="shape=umlActor;verticalLabelPosition=bottom;verticalAlign=top;html=1;outlineConnect=0;" vertex="1" parent="1">
          <mxGeometry x="730" y="280" width="60" height="100" as="geometry" />
        </mxCell>
        <mxCell id="9OET-AX3l3BfNzuc_vFU-4" value="Korepetytor" style="shape=umlActor;verticalLabelPosition=bottom;verticalAlign=top;html=1;outlineConnect=0;" vertex="1" parent="1">
          <mxGeometry x="50" y="200" width="60" height="100" as="geometry" />
        </mxCell>
        <mxCell id="9OET-AX3l3BfNzuc_vFU-7" value="dodaj zajęcia" style="ellipse;whiteSpace=wrap;html=1;" vertex="1" parent="1">
          <mxGeometry x="230" y="280" width="90" height="60" as="geometry" />
        </mxCell>
        <mxCell id="9OET-AX3l3BfNzuc_vFU-8" value="e-Korepetycje" style="text;html=1;align=center;verticalAlign=middle;whiteSpace=wrap;rounded=0;" vertex="1" parent="1">
          <mxGeometry x="340" y="50" width="100" height="30" as="geometry" />
        </mxCell>
        <mxCell id="9OET-AX3l3BfNzuc_vFU-9" value="System" style="text;html=1;align=center;verticalAlign=middle;whiteSpace=wrap;rounded=0;" vertex="1" parent="1">
          <mxGeometry x="730" y="395" width="60" height="30" as="geometry" />
        </mxCell>
        <mxCell id="9OET-AX3l3BfNzuc_vFU-13" value="" style="endArrow=none;html=1;rounded=0;exitX=1;exitY=0.3333333333333333;exitDx=0;exitDy=0;exitPerimeter=0;entryX=0;entryY=0.5;entryDx=0;entryDy=0;" edge="1" parent="1" source="9OET-AX3l3BfNzuc_vFU-4" target="9OET-AX3l3BfNzuc_vFU-7">
          <mxGeometry width="50" height="50" relative="1" as="geometry">
            <mxPoint x="190" y="280" as="sourcePoint" />
            <mxPoint x="240" y="230" as="targetPoint" />
          </mxGeometry>
        </mxCell>
        <mxCell id="9OET-AX3l3BfNzuc_vFU-24" value="&lt;span style=&quot;font-size: 12px; text-wrap: wrap; background-color: rgb(251, 251, 251);&quot;&gt;zaakceptować&lt;/span&gt;" style="edgeLabel;html=1;align=center;verticalAlign=middle;resizable=0;points=[];" vertex="1" connectable="0" parent="9OET-AX3l3BfNzuc_vFU-13">
          <mxGeometry x="-0.2407" y="-2" relative="1" as="geometry">
            <mxPoint y="1" as="offset" />
          </mxGeometry>
        </mxCell>
        <mxCell id="9OET-AX3l3BfNzuc_vFU-15" value="" style="endArrow=none;html=1;rounded=0;exitX=1;exitY=0.3333333333333333;exitDx=0;exitDy=0;exitPerimeter=0;" edge="1" parent="1" source="9OET-AX3l3BfNzuc_vFU-2" target="9OET-AX3l3BfNzuc_vFU-7">
          <mxGeometry width="50" height="50" relative="1" as="geometry">
            <mxPoint x="180" y="400" as="sourcePoint" />
            <mxPoint x="230" y="350" as="targetPoint" />
          </mxGeometry>
        </mxCell>
        <mxCell id="9OET-AX3l3BfNzuc_vFU-25" value="&lt;span style=&quot;font-size: 12px; text-wrap: wrap; background-color: rgb(251, 251, 251);&quot;&gt;zapisz się&lt;/span&gt;" style="edgeLabel;html=1;align=center;verticalAlign=middle;resizable=0;points=[];" vertex="1" connectable="0" parent="9OET-AX3l3BfNzuc_vFU-15">
          <mxGeometry x="-0.2638" y="1" relative="1" as="geometry">
            <mxPoint as="offset" />
          </mxGeometry>
        </mxCell>
        <mxCell id="9OET-AX3l3BfNzuc_vFU-17" value="" style="endArrow=none;dashed=1;html=1;dashPattern=1 3;strokeWidth=2;rounded=0;exitX=0;exitY=0.5;exitDx=0;exitDy=0;entryX=1;entryY=0.5;entryDx=0;entryDy=0;startArrow=classic;startFill=1;" edge="1" parent="1" source="9OET-AX3l3BfNzuc_vFU-18" target="9OET-AX3l3BfNzuc_vFU-7">
          <mxGeometry width="50" height="50" relative="1" as="geometry">
            <mxPoint x="400" y="260" as="sourcePoint" />
            <mxPoint x="450" y="210" as="targetPoint" />
          </mxGeometry>
        </mxCell>
        <mxCell id="9OET-AX3l3BfNzuc_vFU-20" value="&amp;lt;&amp;lt;include&amp;gt;&amp;gt;" style="edgeLabel;html=1;align=center;verticalAlign=middle;resizable=0;points=[];" vertex="1" connectable="0" parent="9OET-AX3l3BfNzuc_vFU-17">
          <mxGeometry x="-0.0575" y="3" relative="1" as="geometry">
            <mxPoint as="offset" />
          </mxGeometry>
        </mxCell>
        <mxCell id="9OET-AX3l3BfNzuc_vFU-18" value="do&lt;span style=&quot;background-color: initial;&quot;&gt;daj termin&lt;/span&gt;" style="ellipse;whiteSpace=wrap;html=1;" vertex="1" parent="1">
          <mxGeometry x="400" y="280" width="90" height="60" as="geometry" />
        </mxCell>
        <mxCell id="9OET-AX3l3BfNzuc_vFU-22" value="" style="endArrow=none;html=1;rounded=0;exitX=1;exitY=0.5;exitDx=0;exitDy=0;" edge="1" parent="1" source="9OET-AX3l3BfNzuc_vFU-18" target="9OET-AX3l3BfNzuc_vFU-3">
          <mxGeometry width="50" height="50" relative="1" as="geometry">
            <mxPoint x="510" y="260" as="sourcePoint" />
            <mxPoint x="560" y="210" as="targetPoint" />
          </mxGeometry>
        </mxCell>
        <mxCell id="9OET-AX3l3BfNzuc_vFU-23" value="przeprowadź zajęcia" style="ellipse;whiteSpace=wrap;html=1;" vertex="1" parent="1">
          <mxGeometry x="260" y="170" width="100" height="50" as="geometry" />
        </mxCell>
        <mxCell id="9OET-AX3l3BfNzuc_vFU-26" value="przeprowadź zajęcia z j. angielskiego" style="ellipse;whiteSpace=wrap;html=1;" vertex="1" parent="1">
          <mxGeometry x="440" y="162.5" width="100" height="57.5" as="geometry" />
        </mxCell>
        <mxCell id="9OET-AX3l3BfNzuc_vFU-27" value="" style="endArrow=none;dashed=1;html=1;dashPattern=1 3;strokeWidth=2;rounded=0;exitX=1;exitY=0.5;exitDx=0;exitDy=0;entryX=0;entryY=0.5;entryDx=0;entryDy=0;startArrow=classicThin;startFill=1;" edge="1" parent="1" source="9OET-AX3l3BfNzuc_vFU-23" target="9OET-AX3l3BfNzuc_vFU-26">
          <mxGeometry width="50" height="50" relative="1" as="geometry">
            <mxPoint x="430" y="140" as="sourcePoint" />
            <mxPoint x="430" y="160" as="targetPoint" />
          </mxGeometry>
        </mxCell>
        <mxCell id="9OET-AX3l3BfNzuc_vFU-28" value="&amp;lt;&amp;lt;extend&amp;gt;&amp;gt;" style="edgeLabel;html=1;align=center;verticalAlign=middle;resizable=0;points=[];" vertex="1" connectable="0" parent="9OET-AX3l3BfNzuc_vFU-27">
          <mxGeometry x="0.0629" y="1" relative="1" as="geometry">
            <mxPoint as="offset" />
          </mxGeometry>
        </mxCell>
        <mxCell id="9OET-AX3l3BfNzuc_vFU-29" value="weź udział w zajęciach" style="ellipse;whiteSpace=wrap;html=1;" vertex="1" parent="1">
          <mxGeometry x="220" y="412.5" width="100" height="55" as="geometry" />
        </mxCell>
        <mxCell id="9OET-AX3l3BfNzuc_vFU-30" value="" style="endArrow=none;html=1;rounded=0;entryX=0;entryY=0.5;entryDx=0;entryDy=0;" edge="1" parent="1" source="9OET-AX3l3BfNzuc_vFU-2" target="9OET-AX3l3BfNzuc_vFU-29">
          <mxGeometry width="50" height="50" relative="1" as="geometry">
            <mxPoint x="170" y="460" as="sourcePoint" />
            <mxPoint x="220" y="410" as="targetPoint" />
          </mxGeometry>
        </mxCell>
        <mxCell id="9OET-AX3l3BfNzuc_vFU-31" value="weź udział w zajęciach z j. angielskiego" style="ellipse;whiteSpace=wrap;html=1;" vertex="1" parent="1">
          <mxGeometry x="413" y="405" width="110" height="70" as="geometry" />
        </mxCell>
        <mxCell id="9OET-AX3l3BfNzuc_vFU-33" value="" style="endArrow=none;html=1;rounded=0;entryX=0;entryY=0.5;entryDx=0;entryDy=0;" edge="1" parent="1" source="9OET-AX3l3BfNzuc_vFU-4" target="9OET-AX3l3BfNzuc_vFU-23">
          <mxGeometry width="50" height="50" relative="1" as="geometry">
            <mxPoint x="150" y="230" as="sourcePoint" />
            <mxPoint x="200" y="180" as="targetPoint" />
          </mxGeometry>
        </mxCell>
        <mxCell id="9OET-AX3l3BfNzuc_vFU-36" value="" style="endArrow=none;dashed=1;html=1;dashPattern=1 3;strokeWidth=2;rounded=0;exitX=1;exitY=0.5;exitDx=0;exitDy=0;entryX=0;entryY=0.5;entryDx=0;entryDy=0;startArrow=classicThin;startFill=1;" edge="1" parent="1" source="9OET-AX3l3BfNzuc_vFU-29" target="9OET-AX3l3BfNzuc_vFU-31">
          <mxGeometry width="50" height="50" relative="1" as="geometry">
            <mxPoint x="340" y="470" as="sourcePoint" />
            <mxPoint x="390" y="420" as="targetPoint" />
          </mxGeometry>
        </mxCell>
        <mxCell id="9OET-AX3l3BfNzuc_vFU-37" value="&amp;lt;&amp;lt;extend&amp;gt;&amp;gt;" style="edgeLabel;html=1;align=center;verticalAlign=middle;resizable=0;points=[];" vertex="1" connectable="0" parent="9OET-AX3l3BfNzuc_vFU-36">
          <mxGeometry x="0.469" relative="1" as="geometry">
            <mxPoint as="offset" />
          </mxGeometry>
        </mxCell>
        <mxCell id="9OET-AX3l3BfNzuc_vFU-38" value="zapłać za zajęcia" style="ellipse;whiteSpace=wrap;html=1;" vertex="1" parent="1">
          <mxGeometry x="270" y="490" width="90" height="50" as="geometry" />
        </mxCell>
        <mxCell id="9OET-AX3l3BfNzuc_vFU-43" style="edgeStyle=orthogonalEdgeStyle;rounded=0;orthogonalLoop=1;jettySize=auto;html=1;" edge="1" parent="1" source="9OET-AX3l3BfNzuc_vFU-39" target="9OET-AX3l3BfNzuc_vFU-38">
          <mxGeometry relative="1" as="geometry" />
        </mxCell>
        <mxCell id="9OET-AX3l3BfNzuc_vFU-39" value="kartą" style="ellipse;whiteSpace=wrap;html=1;" vertex="1" parent="1">
          <mxGeometry x="190" y="585" width="100" height="50" as="geometry" />
        </mxCell>
        <mxCell id="9OET-AX3l3BfNzuc_vFU-44" style="edgeStyle=orthogonalEdgeStyle;rounded=0;orthogonalLoop=1;jettySize=auto;html=1;" edge="1" parent="1" source="9OET-AX3l3BfNzuc_vFU-40" target="9OET-AX3l3BfNzuc_vFU-38">
          <mxGeometry relative="1" as="geometry" />
        </mxCell>
        <mxCell id="9OET-AX3l3BfNzuc_vFU-40" value="blikiem" style="ellipse;whiteSpace=wrap;html=1;" vertex="1" parent="1">
          <mxGeometry x="324" y="585" width="90" height="50" as="geometry" />
        </mxCell>
        <mxCell id="9OET-AX3l3BfNzuc_vFU-45" value="" style="endArrow=none;html=1;rounded=0;entryX=0;entryY=0.5;entryDx=0;entryDy=0;" edge="1" parent="1" source="9OET-AX3l3BfNzuc_vFU-2" target="9OET-AX3l3BfNzuc_vFU-38">
          <mxGeometry width="50" height="50" relative="1" as="geometry">
            <mxPoint x="150" y="510" as="sourcePoint" />
            <mxPoint x="200" y="460" as="targetPoint" />
          </mxGeometry>
        </mxCell>
        <mxCell id="9OET-AX3l3BfNzuc_vFU-46" value="" style="endArrow=none;html=1;rounded=0;exitX=1;exitY=0.5;exitDx=0;exitDy=0;" edge="1" parent="1" source="9OET-AX3l3BfNzuc_vFU-38" target="9OET-AX3l3BfNzuc_vFU-3">
          <mxGeometry width="50" height="50" relative="1" as="geometry">
            <mxPoint x="540" y="500" as="sourcePoint" />
            <mxPoint x="590" y="450" as="targetPoint" />
          </mxGeometry>
        </mxCell>
        <mxCell id="9OET-AX3l3BfNzuc_vFU-47" value="&lt;div&gt;Iga Pastuła 221408&lt;/div&gt;&lt;div&gt;Alina Markina 222466&lt;/div&gt;&lt;div&gt;Aliaksei Hlatsko 223166&lt;/div&gt;" style="text;html=1;align=center;verticalAlign=middle;whiteSpace=wrap;rounded=0;" vertex="1" parent="1">
          <mxGeometry x="520" y="555" width="90" height="30" as="geometry" />
        </mxCell>
      </root>
    </mxGraphModel>
  </diagram>
</mxfile>
